<svg height="512" width="512" fill="#FFA5BA" xmlns="http://www.w3.org/2000/svg"><path d="M324.53 482c-22.267 0-40.744-16.177-44.351-37.416-11.867 4.8-24.767 7.416-38.149 7.416s-26.282-2.616-38.149-7.416c-3.606 21.24-22.084 37.416-44.35 37.416h-30v30h225v-30zM398.504 53.74a91.973 91.973 0 0 1-.974 10.631c4.005 3.201 7.75 6.68 11.219 10.398l56.72-52.809L445.027.004 398.266 43.54c.253 3.31.353 6.707.238 10.2zM114.531 123.944c0-1.244.023-2.484.058-3.722-7.186-7.874-13.091-16.127-17.635-24.669-12.361 13.371-19.923 31.245-19.923 50.891a74.773 74.773 0 0 0 3.458 22.5h42.232a127.417 127.417 0 0 1-8.19-45zM387.107 95.552c-4.544 8.542-10.449 16.795-17.635 24.669a127.41 127.41 0 0 1-8.132 48.722h42.232a74.773 74.773 0 0 0 3.458-22.5c.001-19.645-7.561-37.519-19.923-50.891zM122.456 79.523c6.297-16.978 16.231-32.548 29.418-45.735a129.359 129.359 0 0 1 14.678-12.631L136.335 0s-35.389 36.044-13.879 79.523zM317.508 21.157a129.171 129.171 0 0 1 14.678 12.631c13.187 13.187 23.121 28.757 29.418 45.735C383.115 36.044 347.726 0 347.726 0zM339.531 123.944c0-53.848-43.652-97.5-97.5-97.5s-97.5 43.652-97.5 97.5c0 16.235 3.981 31.535 11 45H328.53c7.02-13.465 11.001-28.765 11.001-45zm-41.288-8.501-21.213 21.213-21.213-21.213L277.03 94.23zm-112.425 0 21.213-21.213 21.213 21.213-21.213 21.213zM46.531 198.943v30h41.311c22.95 0 43.319 14.702 50.548 36.484l35.682 107.522C183.79 402.234 211.175 422 242.031 422s58.24-19.766 67.959-49.051l35.682-107.522c7.229-21.782 27.598-36.484 50.548-36.484h41.311v-30z"/></svg>