<svg id="Capa_1" fill=" #FFA5BA" height="512" viewBox="0 0 512 512" width="512" xmlns="http://www.w3.org/2000/svg"><g><circle cx="336" cy="230" r="10"/><circle cx="276" cy="230" r="10"/><circle cx="236" cy="330" r="10"/><circle cx="216" cy="270" r="10"/><path d="m126 130v120c0 60.95 42.162 112.818 100 126.515v105.485c0 16.542 13.458 30 30 30s30-13.458 30-30v-105.484c57.924-13.719 100-65.655 100-126.516v-15c0-5.522-4.477-10-10-10s-10 4.478-10 10v15c0 61.165-49.146 109.992-110 109.992-50.187 0-93.102-33.352-106.062-80.608 1.958.403 3.986.616 6.062.616 16.542 0 30-13.458 30-30v-120c0-5.514 4.486-10 10-10s10 4.486 10 10v60c0 16.542 13.458 30 30 30s30-13.458 30-30v-40c0-5.514 4.486-10 10-10s10 4.486 10 10v20c0 16.542 13.458 30 30 30s30-13.458 30-30v-40c0-5.514 4.486-10 10-10s10 4.486 10 10v15c0 5.522 4.477 10 10 10s10-4.478 10-10v-15c0-23.876-6.663-47.349-19.268-67.882-2.63-4.286-8.034-5.951-12.622-3.89-2.615 1.176-5.344 1.772-8.11 1.772-8.938 0-16.833-6.09-19.199-14.81-.747-2.754-2.635-5.057-5.189-6.33-2.553-1.273-5.529-1.395-8.178-.335-2.444.979-4.945 1.475-7.434 1.475-11.028 0-20-8.972-20-20 0-1.536.272-3.231.856-5.335.752-2.711.328-5.614-1.169-7.996s-3.929-4.023-6.698-4.521c-8.041-1.446-15.561-2.148-22.989-2.148-71.682 0-130 58.317-130 130zm130 250c3.334 0 6.673-.143 10-.397v102.397c0 5.514-4.486 10-10 10s-10-4.486-10-10v-102.397c3.327.254 6.666.397 10 .397zm0-360c3.279 0 6.596.166 10.003.504.271 21.824 18.109 39.496 39.997 39.496 1.767 0 3.529-.12 5.279-.358 6.97 12.337 20.149 20.358 34.721 20.358 2.526 0 5.027-.24 7.489-.719 3.566 6.825 6.396 13.968 8.456 21.311-1.922-.389-3.91-.592-5.944-.592-16.542 0-30 13.458-30 30v40c0 5.514-4.486 10-10 10s-10-4.486-10-10v-20c0-16.542-13.458-30-30-30s-30 13.458-30 30v40c0 5.514-4.486 10-10 10s-10-4.486-10-10v-60c0-16.542-13.458-30-30-30s-30 13.458-30 30v120c0 5.514-4.486 10-10 10s-10-4.486-10-10v-120c-.001-60.654 49.345-110 109.999-110z"/><path d="m296 320c16.542 0 30-13.458 30-30s-13.458-30-30-30-30 13.458-30 30 13.458 30 30 30zm0-40c5.514 0 10 4.486 10 10s-4.486 10-10 10-10-4.486-10-10 4.486-10 10-10z"/><circle cx="376" cy="190" r="10"/></g></svg>