<svg aria-hidden="true" style="position: absolute; width: 0; height: 0; overflow: hidden;" version="1.1" xmlns="http://www.w3.org/2000/svg" xmlns:xlink="http://www.w3.org/1999/xlink">
<defs>
<symbol id="icon-icecream-1" viewBox="0 0 127 32">
<path fill="#d41443" style="fill: var(--color1, #d41443)" d="M12.16 0.576c-7.36 2.24-11.776 8.064-11.776 15.424 0 6.016 3.072 11.264 8.128 13.888 2.624 1.344 3.008 0.384 0.576-1.472-1.728-1.408-2.048-2.048-2.048-4.416 0-1.664-0.384-3.008-0.96-3.52-1.152-0.96-1.28-3.456-0.128-4.352 0.448-0.384 0.896-1.664 0.96-2.816 0.32-4.224 4.864-8.192 9.408-8.192s9.088 3.968 9.408 8.192c0.064 1.152 0.512 2.432 0.96 2.816 1.152 0.896 1.024 3.392-0.128 4.352-0.576 0.512-0.96 1.856-0.96 3.52 0 2.368-0.32 3.008-2.048 4.416-2.688 2.112-1.92 2.88 1.088 1.024 4.224-2.624 7.36-8.32 7.36-13.376 0-10.112-10.496-18.304-19.84-15.488z"></path>
<path fill="#d31342" style="fill: var(--color2, #d31342)" d="M12.992 8c-1.152 0.512-2.112 1.152-2.112 1.536 0 0.704 3.456 1.984 5.44 1.984s5.44-1.28 5.44-1.984c0-0.768-3.968-2.496-5.568-2.496-0.64 0.064-2.112 0.448-3.2 0.96zM45.952 11.328c-0.96 0.256-1.152 1.088-1.152 5.696v5.376h4.544l-0.192-5.568c-0.192-5.824-0.448-6.272-3.2-5.504zM53.44 11.648c-2.112 1.152-2.88 2.56-2.88 5.312 0 3.776 2.048 5.568 5.824 5.312 2.56-0.192 2.816-0.384 3.008-1.984s0.064-1.728-1.92-1.6c-2.048 0.192-2.112 0.064-2.112-2.048s0.128-2.24 1.984-2.048c1.536 0.128 2.112-0.128 2.368-1.088 0.128-0.64 0-1.536-0.384-1.92-0.896-0.896-4.224-0.896-5.888 0.064zM61.056 11.712c-0.192 0.512-0.256 3.008-0.128 5.632l0.192 4.736h4.16c3.84 0 4.16-0.128 4.352-1.472 0.192-1.216-0.064-1.408-2.048-1.408-1.28 0-2.304-0.32-2.304-0.64 0-0.384 0.896-0.64 1.92-0.64 1.472 0 1.92-0.256 1.92-1.28s-0.448-1.28-1.92-1.28c-1.024 0-1.92-0.32-1.92-0.64 0-0.384 0.832-0.64 1.856-0.64 1.792 0 3.008-1.408 2.24-2.624-0.576-0.96-7.936-0.704-8.32 0.256zM74.24 11.328c-2.368 0.896-3.2 2.304-3.2 5.44 0 4.224 1.536 5.76 5.632 5.504 2.752-0.192 3.008-0.32 3.008-1.792 0-1.408-0.256-1.6-2.048-1.408-1.536 0.128-2.112-0.064-2.432-1.088-0.576-1.984 0.64-3.584 2.688-3.584 1.984 0 2.88-1.984 1.344-2.944-0.896-0.64-3.52-0.64-4.992-0.128zM81.791 11.264c-0.32 0.256-0.512 2.88-0.512 5.824v5.376l2.048-0.192c1.6-0.128 2.176-0.576 2.496-1.792l0.384-1.6 0.512 1.728c0.384 1.472 0.832 1.792 2.496 1.792 2.752 0 3.072-0.448 1.92-2.688-0.704-1.408-0.832-2.112-0.32-2.624 0.832-0.832 0.896-3.648 0.128-4.864-0.64-1.024-8.32-1.856-9.152-0.96zM87.039 14.72c0 0.704-0.256 1.28-0.64 1.28-0.32 0-0.64-0.576-0.64-1.28s0.32-1.28 0.64-1.28c0.384 0 0.64 0.576 0.64 1.28zM93.247 11.328c-0.256 0.192-0.448 2.816-0.448 5.76v5.312h4.16c4.032 0 4.16-0.064 4.16-1.6 0-1.344-0.32-1.6-1.92-1.6-1.024 0-1.92-0.32-1.92-0.64 0-0.384 0.704-0.64 1.6-0.64 1.152 0 1.6-0.32 1.6-1.28s-0.448-1.28-1.6-1.28c-0.896 0-1.6-0.32-1.6-0.64 0-0.384 0.896-0.64 1.92-0.64 1.6 0 1.92-0.256 1.92-1.6 0-1.536-0.192-1.6-3.712-1.6-2.048 0-3.968 0.192-4.16 0.448zM106.175 11.264c-1.152 0.32-4.096 8.832-3.52 10.24 0.512 1.28 3.392 1.152 4.16-0.192 0.576-1.088 0.64-1.088 1.792 0 1.472 1.28 4.672 1.472 4.672 0.256 0-0.384-0.64-2.944-1.472-5.568-1.28-4.224-1.664-4.8-3.008-4.928-0.896 0-2.048 0.064-2.624 0.192zM107.967 17.088c-0.192 0.64-0.32 0.256-0.32-0.768 0-1.088 0.128-1.536 0.32-1.152 0.128 0.448 0.128 1.344 0 1.92zM115.391 11.328c-0.576 0.192-0.832 1.984-0.832 5.696v5.376h1.92c1.728 0 1.92-0.192 1.984-2.112l0.064-2.048 0.704 1.728c0.832 2.176 2.176 2.304 3.008 0.32 0.512-1.344 0.576-1.344 0.576 0.384 0.064 1.6 0.256 1.792 2.048 1.6l1.984-0.192 0.064-5.312c0.128-4.928 0.064-5.312-1.28-5.632-2.048-0.512-3.776 0.704-4.352 3.072l-0.448 2.112-0.704-2.24c-0.896-3.008-2.24-3.776-4.736-2.752zM9.344 11.968c-0.192 0.256-0.384 1.088-0.384 1.92 0 1.472 0.064 1.472 7.36 1.472s7.36 0 7.36-1.472c0-2.176-0.576-2.432-2.624-1.408-2.304 1.216-7.168 1.216-9.472 0-1.024-0.512-1.984-0.704-2.24-0.512zM7.488 17.664c-1.024 1.088 0.704 1.536 5.696 1.536h5.376v2.24c0 1.216 0.32 2.24 0.64 2.24 0.384 0 0.64-0.96 0.64-2.176 0-2.112 0.128-2.24 2.56-2.432 1.408-0.128 2.56-0.512 2.56-0.832 0-0.704-16.768-1.28-17.472-0.576z"></path>
<path fill="#d41443" style="fill: var(--color1, #d41443)" d="M8.96 23.296c0 3.52 1.216 4.224 7.36 4.224s7.36-0.704 7.36-4.224c0-1.536-0.32-2.176-0.96-2.176-0.576 0-0.96 0.576-0.96 1.536 0 3.584-4.864 3.904-5.568 0.384-0.32-1.856-0.512-1.92-3.776-1.92h-3.456v2.176zM12.928 30.528c0.384 2.048 6.912 1.856 6.912-0.128 0-0.704-0.832-0.96-3.584-0.96-3.008 0-3.52 0.192-3.328 1.088z"></path>
</symbol>
<symbol id="icon-Ellipse-3-1" viewBox="0 0 32 32">
<path   d="M32.199 16c0 8.837-7.208 16-16.099 16s-16.099-7.163-16.099-16c0-8.837 7.208-16 16.099-16s16.099 7.163 16.099 16z"></path>
</symbol>
<symbol id="icon-close" viewBox="0 0 32 32">
<path   style="stroke: var(--color4, #fff)" stroke-linejoin="miter" stroke-linecap="butt" stroke-miterlimit="4" stroke-width="2" d="M2.519 2l26.963 28"></path>
<path   style="stroke: var(--color4, #fff)" stroke-linejoin="miter" stroke-linecap="butt" stroke-miterlimit="4" stroke-width="2" d="M2 29.481l28-26.963"></path>
</symbol>
<symbol id="icon-Burger" viewBox="0 0 46 32">
<path  stroke="#d41443"  stroke-linejoin="miter" stroke-linecap="butt" stroke-miterlimit="4" stroke-width="2.2857" d="M0 2.286h45.714M0 16h45.714M0 29.714h45.714"></path>
</symbol>
<symbol id="icon-arrow-right" viewBox="0 0 32 32">
<path d="M16.8 14c0.88 1.040 0.56 1.2-1.92 1.2-1.6 0-2.88 0.32-2.88 0.8 0 0.4 1.28 0.8 2.88 0.8 2.48 0 2.8 0.16 1.92 1.2-1.52 1.84 0.32 1.44 2-0.4 1.36-1.52 1.36-1.68 0-3.2-1.68-1.84-3.52-2.24-2-0.4z"></path>
</symbol>
<symbol id="icon-Vector-1" viewBox="0 0 26 32">
<path fill="none" stroke="#d41410"  stroke-linejoin="round" stroke-linecap="round" stroke-miterlimit="4" stroke-width="6.4" d="M5.171 3.2l14.17 12.8-14.17 12.8"></path>
</symbol>
<symbol id="icon-home-icon" viewBox="0 0 35 32">
<path  d="M32.64 15.4c0.256-0.274 0.413-0.644 0.413-1.050 0-0.47-0.21-0.89-0.541-1.173l-0.002-0.002-14.773-12.749c-0.319-0.265-0.733-0.425-1.184-0.425-0.466 0-0.892 0.171-1.218 0.454l0.002-0.002-14.821 13.403c-0.316 0.282-0.515 0.69-0.515 1.145 0 0.42 0.169 0.8 0.443 1.077l-0-0 0.373 0.381c0.613 0.635 1.611 0.709 2.224 0.168l1.107-0.979v14.328c0.006 0.879 0.72 1.589 1.6 1.589 0.005 0 0.009-0 0.014-0h5.775c0.004 0 0.009 0 0.013 0 0.88 0 1.594-0.71 1.6-1.589v-10.025h7.371v10.024c-0.013 0.88 0.624 1.589 1.515 1.589h6.123c0.003 0 0.007 0 0.011 0 0.88 0 1.594-0.71 1.6-1.589v-14.126l0.685 0.592c0.376 0.325 1.168 0.064 1.765-0.587l0.421-0.453z"></path>
</symbol>
<symbol id="icon-github" viewBox="0 0 32 32">
<path  d="M16 0.941c-8.272 0-15.059 6.789-15.059 15.059 0 7.059 4.954 13.47 11.53 15.059v-4.982c-0.651 0.144-1.251 0.147-1.915-0.048-0.89-0.264-1.613-0.856-2.149-1.76-0.342-0.576-0.949-1.203-1.581-1.157l-0.155-1.758c1.368-0.117 2.55 0.834 3.253 2.014 0.312 0.525 0.672 0.832 1.133 0.968 0.445 0.131 0.923 0.069 1.482-0.128 0.139-1.117 0.651-1.536 1.037-2.123-3.922-0.586-5.485-2.667-6.106-4.309-0.822-2.181-0.381-4.906 1.072-6.627 0.029-0.032 0.080-0.122 0.061-0.182-0.667-2.014 0.144-3.68 0.176-3.856 0.768 0.227 0.893-0.229 3.341 1.258l0.422 0.254c0.176 0.106 0.122 0.045 0.299 0.032 0.943-0.266 2.029-0.428 3.15-0.445l0.010-0c1.147 0.018 2.247 0.183 3.294 0.478l-0.090-0.022 0.138 0.014c-0.013-0.002 0.037-0.010 0.12-0.059 3.056-1.851 2.947-1.246 3.766-1.512 0.030 0.176 0.832 1.869 0.171 3.856-0.088 0.275 2.651 2.784 1.133 6.811-0.621 1.643-2.184 3.723-6.106 4.309 0.502 0.768 1.107 1.174 1.104 2.755v6.219c6.576-1.589 11.53-8 11.53-15.059 0-8.272-6.787-15.059-15.059-15.059z"></path>
</symbol>
<symbol id="icon-facebook" viewBox="0 0 32 32">
<path  d="M14.266 15.97h-4.176v15.39h-6.328v-15.392h-3.008v-5.408h3.008v-3.498c0-2.504 1.184-6.422 6.384-6.422l4.688 0.019v5.25h-3.402c-0.557 0-1.342 0.282-1.342 1.475v3.184h4.73l-0.554 5.4z"></path>
</symbol>
<symbol id="icon-telegram" viewBox="0 0 32 32">
<path  style="fill: var(--color2, #fff)" d="M16.206 20.75l-0.636 8.34c0.908 0 1.302-0.366 1.774-0.802l4.26-3.8 8.83 6.034c1.62 0.84 2.76 0.398 3.196-1.39l5.796-25.346h0.002c0.514-2.236-0.866-3.108-2.444-2.56l-34.064 12.172c-2.324 0.84-2.29 2.052-0.396 2.6l8.71 2.528 20.23-11.814c0.952-0.588 1.816-0.264 1.104 0.326l-16.362 13.712z"></path>
</symbol>
</defs>
</svg>
